<svg width="566" height="515" viewBox="0 0 566 515" fill="none" xmlns="http://www.w3.org/2000/svg">
<g clip-path="url(#clip0_882_96822)">
<path d="M548.373 515C552.758 515.007 556.969 513.286 560.092 510.209C563.216 507.133 565.001 502.948 565.059 498.565C565.753 453.236 569.405 386.368 484.008 367.865C414.879 352.947 455.882 230.151 269.789 238.16C136.19 243.852 171.631 356.428 67.8201 365.81C-1.30891 371.987 -1.89785 459.386 0.758944 499.428C1.03489 503.651 2.90772 507.61 5.99718 510.502C9.08664 513.394 13.1611 515.003 17.3934 515H548.373Z" fill="#46A583" fill-opacity="0.65"/>
<path opacity="0.55" d="M484.008 367.904C414.879 352.947 455.882 230.151 269.789 238.16C238.012 239.468 215.815 246.914 199.024 257.539C204.678 256.794 210.685 256.231 217.085 256.008C403.178 248.065 362.214 370.848 431.317 385.818C515.798 404.138 513.115 469.763 512.382 515.066H548.373C552.769 515.073 556.99 513.342 560.115 510.251C563.241 507.161 565.018 502.96 565.06 498.565C565.753 453.275 569.405 386.407 484.008 367.904Z" fill="#46A583"/>
<path d="M191.041 0H188.109V214.343H191.041V0Z" fill="#79C9E8"/>
<path d="M401.712 0H398.781V247.267H401.712V0Z" fill="#79C9E8"/>
<path d="M401.438 232.925L182.874 207.421C180.654 207.162 178.405 207.343 176.255 207.953C174.105 208.563 172.096 209.591 170.344 210.977C168.591 212.364 167.129 214.082 166.041 216.034C164.953 217.985 164.26 220.132 164.001 222.352L147.759 361.989C147.5 364.208 147.681 366.457 148.291 368.607C148.902 370.756 149.93 372.764 151.316 374.517C152.703 376.269 154.422 377.731 156.373 378.819C158.325 379.907 160.473 380.6 162.693 380.858L381.256 406.362C383.476 406.622 385.725 406.441 387.875 405.831C390.025 405.22 392.034 404.193 393.786 402.806C395.539 401.42 397.001 399.701 398.089 397.75C399.177 395.798 399.871 393.651 400.129 391.432L416.436 251.729C416.94 247.247 415.643 242.748 412.83 239.222C410.018 235.696 405.92 233.431 401.438 232.925Z" fill="#D7F0F9"/>
<path d="M414.761 265.561L416.371 251.729C416.875 247.257 415.587 242.768 412.788 239.243C409.99 235.719 405.908 233.447 401.438 232.925L182.874 207.421C180.654 207.162 178.405 207.343 176.255 207.953C174.105 208.563 172.097 209.591 170.344 210.977C168.591 212.364 167.129 214.082 166.041 216.034C164.953 217.985 164.26 220.132 164.001 222.352L162.378 236.183L414.761 265.561Z" fill="#46A583"/>
<path d="M197.807 320.704L225.5 271.907C226.367 270.377 227.667 269.138 229.237 268.344C230.806 267.55 232.575 267.237 234.321 267.445C235.489 267.578 236.62 267.941 237.647 268.512C238.675 269.083 239.579 269.852 240.309 270.773C241.039 271.695 241.579 272.752 241.899 273.883C242.219 275.014 242.313 276.197 242.174 277.364L236.415 326.723H236.664C237.483 326.814 238.276 327.067 238.996 327.468C239.716 327.868 240.348 328.409 240.856 329.057C241.365 329.705 241.738 330.449 241.956 331.243C242.173 332.038 242.229 332.868 242.122 333.685C241.928 335.318 241.095 336.808 239.804 337.829C238.514 338.849 236.872 339.317 235.238 339.129H234.989L233.942 348.118C233.841 348.992 233.569 349.836 233.142 350.605C232.714 351.373 232.139 352.049 231.45 352.595C230.761 353.14 229.971 353.545 229.125 353.785C228.279 354.025 227.394 354.096 226.521 353.994C225.648 353.893 224.803 353.621 224.035 353.194C223.266 352.766 222.59 352.191 222.044 351.502C221.499 350.813 221.094 350.023 220.854 349.178C220.614 348.332 220.543 347.447 220.645 346.574L221.692 337.584L201.759 335.255C200.949 335.163 200.164 334.911 199.451 334.515C198.737 334.118 198.109 333.585 197.602 332.946C197.095 332.306 196.719 331.573 196.496 330.789C196.273 330.004 196.207 329.182 196.302 328.372L196.838 323.844C196.934 322.741 197.264 321.67 197.807 320.704ZM223.197 324.355L226.77 293.747C226.775 293.702 226.764 293.657 226.74 293.619C226.715 293.581 226.678 293.552 226.635 293.538C226.592 293.525 226.545 293.526 226.503 293.543C226.461 293.559 226.425 293.59 226.403 293.63L210.044 322.497C209.979 322.614 209.943 322.746 209.941 322.88C209.938 323.015 209.969 323.148 210.029 323.268C210.09 323.388 210.179 323.491 210.289 323.569C210.398 323.647 210.526 323.696 210.659 323.714L222.294 325.022C222.501 325.046 222.709 324.99 222.877 324.866C223.044 324.742 223.159 324.559 223.197 324.355Z" fill="#46A583"/>
<path d="M320.032 334.993L347.726 286.197C348.597 284.67 349.897 283.434 351.466 282.64C353.034 281.847 354.801 281.532 356.547 281.735C358.903 282.01 361.054 283.21 362.526 285.069C363.998 286.929 364.672 289.297 364.399 291.654L358.602 340.987H358.85C359.658 341.081 360.44 341.333 361.15 341.729C361.86 342.126 362.485 342.658 362.99 343.296C363.494 343.934 363.868 344.665 364.09 345.448C364.311 346.23 364.377 347.049 364.282 347.857C364.189 348.665 363.938 349.448 363.542 350.16C363.146 350.872 362.614 351.498 361.976 352.004C361.338 352.51 360.606 352.884 359.822 353.107C359.039 353.329 358.219 353.395 357.411 353.3H357.162L356.115 362.29C355.905 364.052 355.005 365.659 353.611 366.759C352.217 367.858 350.444 368.359 348.681 368.152C347.808 368.052 346.964 367.78 346.196 367.352C345.429 366.924 344.753 366.349 344.208 365.66C343.664 364.971 343.26 364.181 343.022 363.335C342.783 362.49 342.714 361.605 342.818 360.733L343.865 351.743L323.959 349.388C323.149 349.293 322.366 349.041 321.654 348.644C320.942 348.247 320.315 347.713 319.81 347.074C319.304 346.435 318.929 345.702 318.707 344.918C318.485 344.134 318.419 343.314 318.514 342.504L319.038 337.977C319.174 336.928 319.512 335.915 320.032 334.993ZM345.435 338.644L349.008 308.037C349.013 307.992 349.003 307.946 348.978 307.908C348.954 307.87 348.917 307.842 348.873 307.828C348.83 307.814 348.784 307.816 348.741 307.832C348.699 307.849 348.664 307.879 348.642 307.919L332.282 336.786C332.214 336.903 332.176 337.035 332.171 337.171C332.167 337.307 332.197 337.441 332.258 337.562C332.319 337.683 332.41 337.787 332.522 337.864C332.633 337.941 332.763 337.989 332.897 338.003L344.519 339.312C344.732 339.338 344.947 339.28 345.118 339.151C345.289 339.021 345.403 338.83 345.435 338.618V338.644Z" fill="#46A583"/>
<path d="M265.09 291.994C266.7 278.214 274.88 271.174 288.177 272.731C301.474 274.289 307.808 283.004 306.212 296.796L300.977 341.615C299.354 355.407 291.174 362.434 277.877 360.89C264.58 359.346 258.245 350.604 259.842 336.812L265.09 291.994ZM273.296 339.259C272.576 345.422 275.011 348.066 279.33 348.576C283.649 349.086 286.62 347.058 287.339 340.895L292.771 294.428C293.491 288.264 291.056 285.608 286.737 285.111C282.418 284.613 279.447 286.628 278.728 292.779L273.296 339.259Z" fill="#46A583"/>
<path d="M188.214 226.657C188.112 227.558 187.744 228.408 187.159 229.1C186.573 229.792 185.795 230.295 184.923 230.545C184.051 230.794 183.125 230.78 182.262 230.503C181.399 230.225 180.637 229.698 180.073 228.988C179.51 228.278 179.17 227.416 179.096 226.513C179.023 225.609 179.219 224.704 179.661 223.912C180.102 223.12 180.769 222.477 181.576 222.064C182.383 221.651 183.295 221.487 184.196 221.593C185.399 221.734 186.498 222.346 187.251 223.295C188.004 224.245 188.35 225.453 188.214 226.657Z" fill="white"/>
<path d="M210.122 229.222C210.015 230.118 209.645 230.963 209.058 231.649C208.471 232.335 207.694 232.832 206.825 233.077C205.956 233.321 205.034 233.303 204.175 233.024C203.316 232.745 202.56 232.218 202 231.509C201.441 230.8 201.105 229.941 201.034 229.041C200.962 228.141 201.159 227.24 201.6 226.452C202.04 225.664 202.705 225.025 203.509 224.614C204.313 224.203 205.221 224.04 206.117 224.145C206.714 224.214 207.291 224.401 207.816 224.694C208.34 224.987 208.801 225.381 209.173 225.853C209.545 226.324 209.821 226.865 209.983 227.443C210.146 228.021 210.193 228.626 210.122 229.222Z" fill="#79C9E8"/>
<path d="M232.843 231.865C232.738 232.762 232.371 233.608 231.786 234.296C231.201 234.984 230.425 235.483 229.557 235.731C228.688 235.978 227.766 235.962 226.906 235.686C226.047 235.409 225.288 234.884 224.727 234.177C224.166 233.469 223.827 232.611 223.753 231.712C223.679 230.812 223.874 229.91 224.312 229.121C224.751 228.331 225.414 227.69 226.217 227.277C227.02 226.864 227.927 226.698 228.825 226.801C230.028 226.942 231.127 227.554 231.88 228.504C232.633 229.453 232.979 230.661 232.843 231.865Z" fill="#FFBF4D"/>
<path d="M144.946 390.987C143.133 399.682 142.308 408.553 142.485 417.433C142.93 429.407 141.504 508.13 141.504 508.13H151.123C151.123 508.13 164.813 446.483 165.323 441.615C165.834 436.748 172.757 388.069 172.757 388.069L144.946 390.987Z" fill="#33725B"/>
<path d="M151.345 387.401C151.345 387.401 153.557 404.216 157.313 416.19C161.07 428.163 179.562 508.156 179.562 508.156H189.182C189.182 508.156 187.415 446.509 186.748 441.642C186.08 436.774 181.212 388.082 181.212 388.082L151.345 387.401Z" fill="#33725B" fill-opacity="0.65"/>
<path d="M180.361 508.13V514.843H198.684C198.91 514.844 199.13 514.771 199.311 514.637C199.493 514.502 199.626 514.313 199.69 514.096C199.755 513.88 199.748 513.648 199.671 513.436C199.593 513.224 199.449 513.043 199.259 512.919C196.642 511.14 192.297 508.679 188.305 508.13H180.361Z" fill="#143F46"/>
<path d="M141.988 508.13V514.843H160.311C160.538 514.847 160.76 514.776 160.944 514.643C161.127 514.509 161.262 514.32 161.329 514.103C161.395 513.885 161.389 513.653 161.312 513.439C161.235 513.226 161.09 513.043 160.9 512.919C158.217 511.14 153.924 508.679 149.945 508.13H141.988Z" fill="#143F46"/>
<path d="M175.021 309.162C175.021 309.162 181.316 299.597 174.092 298.694C168.543 297.974 166.239 299.623 166.239 299.623C166.239 299.623 159.853 298.929 156.358 301.952C153.963 304.033 145.155 320.141 159.382 325.964C173.608 331.788 170.585 316.804 170.585 316.804L175.021 309.162Z" fill="#143F46" fill-opacity="0.65"/>
<path d="M174.066 298.667C168.517 297.948 166.213 299.597 166.213 299.597C166.213 299.597 159.826 298.903 156.332 301.926C153.937 304.006 145.129 320.115 159.355 325.938C166.043 328.686 168.922 326.841 170.087 324.106C156.594 327.914 155.128 311.648 157.353 307.016C159.578 302.384 165.035 304.491 165.035 304.491C167.169 299.139 174.079 299.727 176.932 300.133C176.585 299.7 176.15 299.346 175.656 299.093C175.162 298.84 174.62 298.695 174.066 298.667Z" fill="#143F46"/>
<path d="M166.213 313.821C166.213 313.821 164.355 311.949 162.954 313.821C161.554 315.692 162.483 319.879 164.813 320.115C164.813 320.115 164.119 326.174 159.447 325.938V330.845H170.414V327.142C170.414 327.142 177.181 324.355 176.958 318.754C176.845 315.491 176.213 312.266 175.087 309.201C172.731 311.694 169.606 313.321 166.213 313.821Z" fill="#F98D3D"/>
<path d="M167.836 328.673C168.922 329.131 168.739 329.811 168.778 330.845H170.362V327.142C170.362 327.142 167.744 327.993 163.818 325.833C165.015 326.966 166.368 327.923 167.836 328.673Z" fill="#ED701B"/>
<path d="M170.14 304.896C170.14 304.896 164.459 302.633 163.792 304.334C163.36 305.446 164.459 306.401 165.978 307.369L164.669 307.579C164.6 307.588 164.536 307.618 164.483 307.664C164.431 307.709 164.394 307.77 164.376 307.837C164.358 307.904 164.36 307.974 164.381 308.04C164.403 308.106 164.444 308.164 164.499 308.207C165.617 308.681 166.834 308.879 168.046 308.783L170.14 304.896Z" fill="#F98D3D"/>
<path d="M210.711 319.121C199.888 311.099 170.296 304.726 170.296 304.726L167.862 309.175C167.862 309.175 194.718 319.644 192.938 321.136C191.904 322.052 178.777 328.058 174.327 330.086C173.37 330.518 172.328 330.733 171.278 330.714L157.68 330.636C154.361 330.474 151.049 331.085 148.006 332.42C144.963 333.756 142.271 335.779 140.143 338.33C133.245 346.273 121.519 364.659 121.519 364.659L141.281 393.709L143.467 396.915V397.15L145.417 397.347C151.764 397.936 172.116 399.545 182.887 397.255L183.188 397.19L182.677 349.532C193.086 341.411 202.593 332.198 211.038 322.052C211.221 321.843 211.357 321.598 211.44 321.333C211.523 321.069 211.55 320.79 211.519 320.514C211.488 320.239 211.4 319.973 211.261 319.733C211.122 319.493 210.935 319.284 210.711 319.121ZM144.357 384.117L142.42 379.904L136.282 366.491L146.477 355.08L144.645 380.113L144.357 384.117Z" fill="#FF795B"/>
<path d="M142.42 379.904L144.357 384.117L143.415 396.823L143.401 396.863L141.216 393.657L142.42 379.904Z" fill="#EFAA3A"/>
<g style="mix-blend-mode:multiply" opacity="0.29">
<path d="M177.992 347.765C176.16 349.073 176.683 360.851 176.173 368.244C175.414 380.584 174.681 391.262 175.218 398.158C177.763 398.02 180.295 397.701 182.795 397.203L183.096 397.137L182.586 349.479C192.994 341.358 202.502 332.146 210.947 321.999C211.127 321.79 211.262 321.547 211.343 321.283C211.425 321.02 211.451 320.743 211.42 320.469C211.39 320.195 211.303 319.93 211.165 319.691C211.027 319.453 210.842 319.245 210.62 319.081C200.623 329.598 189.704 339.198 177.992 347.765Z" fill="#FF795B"/>
</g>
<path d="M186.761 441.628C186.277 438.108 183.607 411.78 182.167 397.386L175.244 398.158C175.244 398.158 185.334 481.029 185.989 508.143H189.195C189.195 508.143 187.428 446.496 186.761 441.628Z" fill="#33725B"/>
<path d="M120.55 303.588H121.1V305.551C121.1 306.152 121.283 306.414 121.702 306.414C122.121 306.414 122.265 306.244 122.566 305.865V303.588H123.115V306.807H122.67V306.296C122.556 306.471 122.401 306.616 122.219 306.718C122.036 306.821 121.832 306.878 121.623 306.885C120.93 306.885 120.629 306.44 120.629 305.577L120.55 303.588Z" fill="white"/>
<path d="M125.406 307.056V308.142H124.856V303.588H125.314V303.954C125.591 303.689 125.953 303.531 126.335 303.509C127.173 303.509 127.644 304.15 127.644 305.145C127.644 306.14 126.989 306.885 126.257 306.885C125.926 306.862 125.612 306.729 125.367 306.506L125.406 307.056ZM126.191 306.414C126.728 306.414 127.107 305.93 127.107 305.106C127.107 304.281 126.872 303.928 126.27 303.928C125.937 303.957 125.628 304.111 125.406 304.36V306.048C125.618 306.256 125.895 306.385 126.191 306.414Z" fill="white"/>
<path d="M129.11 306.061C129.368 306.297 129.702 306.431 130.052 306.44C130.484 306.44 130.693 306.218 130.693 305.943C130.693 305.668 130.314 305.472 129.96 305.328C129.607 305.184 129.005 304.949 129.005 304.412C129.005 303.876 129.411 303.496 130.104 303.496C130.469 303.494 130.823 303.624 131.099 303.863L130.85 304.203C130.645 304.027 130.387 303.926 130.117 303.915C129.712 303.915 129.528 304.137 129.528 304.386C129.528 304.635 129.869 304.792 130.235 304.936C130.602 305.079 131.217 305.302 131.217 305.904C131.217 306.506 130.798 306.872 130.039 306.872C129.599 306.861 129.176 306.705 128.835 306.427L129.11 306.061Z" fill="white"/>
<path d="M132.918 306.035C133.029 306.035 133.136 306.079 133.214 306.158C133.293 306.236 133.337 306.343 133.337 306.454C133.337 306.565 133.293 306.671 133.214 306.75C133.136 306.828 133.029 306.872 132.918 306.872C132.807 306.872 132.7 306.828 132.622 306.75C132.543 306.671 132.499 306.565 132.499 306.454C132.499 306.343 132.543 306.236 132.622 306.158C132.7 306.079 132.807 306.035 132.918 306.035Z" fill="white"/>
<path d="M135.222 306.035C135.333 306.035 135.439 306.079 135.518 306.158C135.596 306.236 135.64 306.343 135.64 306.454C135.64 306.565 135.596 306.671 135.518 306.75C135.439 306.828 135.333 306.872 135.222 306.872C135.11 306.872 135.004 306.828 134.925 306.75C134.847 306.671 134.803 306.565 134.803 306.454C134.803 306.343 134.847 306.236 134.925 306.158C135.004 306.079 135.11 306.035 135.222 306.035Z" fill="white"/>
<path d="M88.3415 484.811C88.3415 484.811 85.3837 482.05 87.373 471.555C89.3623 461.061 94.401 450.972 91.9275 439.574C89.4539 428.177 70.0449 399.467 69.9795 397.556C69.9141 395.645 63.9854 430.964 74.0236 444.913C84.0618 458.862 85.279 463.665 84.834 470.98C84.389 478.295 84.9256 484.196 86.038 485.897L88.3415 484.811Z" fill="#46A583" fill-opacity="0.65"/>
<path d="M86.5093 463.704C85.3445 468.389 84.6378 480.127 86.5093 482.94C86.6925 483.202 86.9412 483.058 87.2553 482.56C86.6794 480.624 86.313 477.221 87.3862 471.555C89.3755 461.087 94.4142 450.972 91.9407 439.574C89.4671 428.176 70.0581 399.466 69.9927 397.556C69.9927 397.556 72.9112 421.477 82.7662 437.951C89.8074 449.742 87.6872 459.019 86.5093 463.704Z" fill="#46A583"/>
<path d="M91.8883 484.092C91.8883 484.092 86.1821 469.854 95.8146 457.528C105.447 445.201 120.93 429.367 121.244 423.099C121.244 423.099 125.17 452.869 112.632 461.296C100.094 469.724 91.2732 471.085 93.4457 484.039L91.8883 484.092Z" fill="#46A583" fill-opacity="0.65"/>
<path d="M105.46 455.382C91.4303 465.588 90.2917 477.352 92.4643 482.796C92.5375 482.998 92.6594 483.179 92.8192 483.323C92.979 483.467 93.1717 483.569 93.3804 483.62C91.4958 471.111 100.251 469.684 112.672 461.375C125.092 453.065 121.283 423.178 121.283 423.178C121.283 423.178 119.49 445.096 105.46 455.382Z" fill="#46A583"/>
<path d="M82.4521 484.406C83.5694 479.25 83.8565 473.949 83.3028 468.703C82.3343 460.564 73.8273 455.984 65.8831 447.387C61.7998 442.964 60.6481 419.579 63.1216 417.407C63.1216 417.407 49.0917 434.419 51.2642 446.85C53.4368 459.281 76.3663 467.408 78.5258 473.414C79.7946 476.968 80.4539 480.711 80.4759 484.484L82.4521 484.406Z" fill="#46A583" fill-opacity="0.65"/>
<path d="M58.4362 424.12C53.8032 436.669 58.554 451.875 73.9582 461.323C85.2921 468.271 81.6799 482.731 81.6799 482.731L83.5383 477.025C83.7276 474.26 83.6663 471.483 83.3551 468.729C82.3866 460.59 73.8796 456.01 65.9354 447.413C62.0091 443.147 60.7004 421.241 62.9253 417.747C61.3222 419.794 59.8239 421.921 58.4362 424.12Z" fill="#46A583"/>
<path d="M62.9253 417.747L63.174 417.433C63.0754 417.524 62.9916 417.63 62.9253 417.747Z" fill="#49B4D6"/>
<path d="M94.8201 483.464C94.8201 483.464 98.1051 471.268 106.246 469.632C114.386 467.996 123.705 455.971 124.215 453.615C124.215 453.615 122.841 476.319 94.8201 483.464Z" fill="#46A583" fill-opacity="0.65"/>
<path d="M105.774 473.702C100.788 476.188 98.7202 479.538 97.9873 482.587C122.932 474.565 124.163 453.654 124.163 453.654C123.847 454.509 123.406 455.312 122.854 456.036C120.498 460.289 114.569 469.266 105.774 473.702Z" fill="#46A583"/>
<path d="M112.41 478.936H69.8879L74.9398 510.695C75.1151 511.868 75.7054 512.94 76.6035 513.716C77.5015 514.491 78.6479 514.919 79.8346 514.922H102.463C103.636 514.909 104.767 514.481 105.656 513.715C106.544 512.948 107.133 511.893 107.319 510.734L112.41 478.936Z" fill="#FFB84C"/>
<path d="M111.585 484.236L112.41 478.975H69.8879L70.7255 484.236H111.585Z" fill="#FF795B"/>
<path d="M102.084 478.936L97.0579 510.734C96.8741 511.9 96.2801 512.963 95.3829 513.731C94.4856 514.498 93.3439 514.92 92.1631 514.922H102.463C103.636 514.909 104.767 514.481 105.656 513.715C106.544 512.948 107.133 511.893 107.319 510.734L112.41 478.936H102.084Z" fill="#FF795B"/>
<path d="M405.743 422.34H213.538V461.414H405.743V422.34Z" fill="#FFBF4D"/>
<g style="mix-blend-mode:multiply" opacity="0.29">
<path d="M405.743 422.34H213.538V431.827H405.743V422.34Z" fill="#F98D2B"/>
</g>
<path d="M230.251 422.34H247.789L243.09 431.827H225.54L230.251 422.34Z" fill="#F77E2D"/>
<path d="M269.776 422.34H287.313L282.615 431.827H265.077L269.776 422.34Z" fill="#F77E2D"/>
<path d="M309.301 422.34H326.838L322.139 431.827H304.602L309.301 422.34Z" fill="#F77E2D"/>
<path d="M348.825 422.34H366.35L361.651 431.827H344.114L348.825 422.34Z" fill="#F77E2D"/>
<path d="M405.743 422.34V422.602L401.163 431.827H383.638L388.35 422.34H405.743Z" fill="#F77E2D"/>
<path d="M251.008 461.414H237.462V514.843H251.008V461.414Z" fill="#46A583" fill-opacity="0.65"/>
<path d="M251.008 461.414H247.933V514.843H251.008V461.414Z" fill="#46A583"/>
<path d="M382.866 461.414H369.321V514.843H382.866V461.414Z" fill="#46A583" fill-opacity="0.65"/>
<path d="M382.866 461.414H378.861V514.843H382.866V461.414Z" fill="#46A583"/>
<path d="M251.008 461.375H237.462V468.101H251.008V461.375Z" fill="#46A583"/>
<path d="M382.866 461.375H369.321V468.101H382.866V461.375Z" fill="#46A583"/>
<path d="M251.008 416.229H237.462V422.301H251.008V416.229Z" fill="#46A583" fill-opacity="0.65"/>
<path d="M251.008 416.229H247.933V422.301H251.008V416.229Z" fill="#46A583"/>
<path d="M382.866 416.229H369.321V422.301H382.866V416.229Z" fill="#46A583" fill-opacity="0.65"/>
<path d="M382.866 416.229H378.861V422.301H382.866V416.229Z" fill="#46A583"/>
<path d="M251.008 421.542H237.462V422.301H251.008V421.542Z" fill="#46A583"/>
<path d="M382.866 421.542H369.321V422.301H382.866V421.542Z" fill="#46A583"/>
<path d="M247.788 422.34L228.406 461.414H213.538V456.023L230.251 422.34H247.788Z" fill="#46A583"/>
<path d="M269.776 422.34L250.393 461.414H267.931L287.313 422.34H269.776Z" fill="#46A583"/>
<path d="M326.838 422.34L307.455 461.414H289.918L309.301 422.34H326.838Z" fill="#46A583"/>
<path d="M366.35 422.34L346.98 461.414H329.442L348.825 422.34H366.35Z" fill="#46A583"/>
<path d="M388.35 422.34L368.967 461.414H386.491L405.743 422.602L388.35 422.34Z" fill="#46A583"/>
<path d="M247.789 422.34L243.09 431.827H225.54L230.251 422.34H247.789Z" fill="#33725B"/>
<path d="M287.313 422.34L282.615 431.827H265.077L269.776 422.34H287.313Z" fill="#33725B"/>
<path d="M326.838 422.34L322.139 431.827H304.602L309.301 422.34H326.838Z" fill="#33725B"/>
<path d="M366.35 422.34L361.651 431.827H344.114L348.825 422.34H366.35Z" fill="#33725B"/>
<path d="M405.743 422.602L401.163 431.827H383.638L388.35 422.34L405.743 422.602Z" fill="#33725B"/>
<path style="mix-blend-mode:overlay" opacity="0.55" d="M402.432 439.247H218.891V458.797H402.432V439.247Z" fill="url(#paint0_linear_882_96822)"/>
<path d="M245.796 419.69C252.381 418.619 256.851 412.414 255.78 405.83C254.709 399.245 248.502 394.776 241.917 395.847C235.332 396.919 230.862 403.124 231.934 409.708C233.005 416.292 239.211 420.761 245.796 419.69Z" fill="#FFBF4D"/>
<path d="M249.359 407.75C249.359 406.665 249.037 405.604 248.434 404.702C247.831 403.8 246.974 403.098 245.971 402.683C244.968 402.268 243.865 402.161 242.801 402.373C241.737 402.586 240.76 403.109 239.993 403.877C239.227 404.646 238.705 405.624 238.495 406.688C238.285 407.753 238.396 408.855 238.813 409.857C239.23 410.859 239.935 411.714 240.838 412.315C241.742 412.916 242.803 413.235 243.888 413.233C244.608 413.233 245.32 413.091 245.985 412.815C246.65 412.539 247.253 412.135 247.761 411.626C248.27 411.117 248.672 410.512 248.946 409.847C249.221 409.182 249.361 408.469 249.359 407.75Z" fill="#33725B"/>
<path d="M377.929 419.702C384.514 418.631 388.984 412.425 387.913 405.841C386.841 399.257 380.635 394.788 374.05 395.859C367.465 396.93 362.995 403.136 364.066 409.72C365.138 416.304 371.344 420.773 377.929 419.702Z" fill="#FFBF4D"/>
<path d="M381.492 407.75C381.492 406.665 381.17 405.604 380.567 404.702C379.964 403.8 379.107 403.098 378.104 402.683C377.101 402.268 375.998 402.161 374.934 402.373C373.87 402.586 372.893 403.109 372.126 403.877C371.36 404.646 370.839 405.624 370.628 406.688C370.418 407.753 370.529 408.855 370.946 409.857C371.363 410.859 372.068 411.714 372.971 412.315C373.875 412.916 374.936 413.235 376.021 413.233C376.741 413.233 377.453 413.091 378.118 412.815C378.783 412.539 379.386 412.135 379.894 411.626C380.403 411.117 380.805 410.512 381.079 409.847C381.354 409.182 381.494 408.469 381.492 407.75Z" fill="#33725B"/>
<path d="M478.563 510.695H417.352L426.658 488.004L430.427 478.844L431.461 476.345L433.162 472.249L433.502 471.425L437.272 462.265L437.965 460.603L444.64 444.403C444.905 443.753 445.358 443.196 445.941 442.805C446.524 442.413 447.21 442.204 447.912 442.204C448.614 442.204 449.3 442.413 449.883 442.805C450.466 443.196 450.919 443.753 451.184 444.403L457.859 460.603L458.539 462.265L462.308 471.425L462.662 472.249L464.35 476.345L465.384 478.844L469.153 488.004L478.563 510.695Z" fill="#FFBF4D"/>
<g style="mix-blend-mode:multiply" opacity="0.29">
<path d="M421.37 500.972L417.352 510.695H478.576L474.558 500.972H421.37Z" fill="#F98D2B"/>
</g>
<path d="M482.568 504.885H412.458V514.791H482.568V504.885Z" fill="#46A583"/>
<path d="M482.568 504.885H467.426V514.791H482.568V504.885Z" fill="#33725B"/>
<g style="mix-blend-mode:multiply" opacity="0.29">
<path d="M476.155 504.885H467.504L460.541 488.017L456.772 478.857L455.738 476.345L454.05 472.262L453.71 471.425L449.94 462.265L449.247 460.603L443.671 446.954L444.731 444.337C444.997 443.687 445.45 443.131 446.032 442.739C446.615 442.348 447.301 442.139 448.003 442.139C448.706 442.139 449.392 442.348 449.974 442.739C450.557 443.131 451.01 443.687 451.275 444.337L457.95 460.537L458.631 462.199L462.4 471.359L462.753 472.197L464.441 476.279L465.475 478.792L469.245 487.952L476.155 504.885Z" fill="#F98D2B"/>
</g>
<path d="M462.361 471.412H433.555L437.324 462.252H458.591L462.361 471.412Z" fill="#46A583"/>
<path d="M469.206 487.991V488.004H426.71V487.991L430.479 478.831H465.436L469.206 487.991Z" fill="#46A583"/>
<path d="M462.361 471.412H453.71L449.94 462.252H458.591L462.361 471.412Z" fill="#33725B"/>
<path d="M469.205 487.991V488.004H460.541V487.991L456.772 478.831H465.436L469.205 487.991Z" fill="#33725B"/>
<path d="M88.3678 288.16C90.5869 288.182 92.7388 287.399 94.4238 285.955C96.1088 284.511 97.2122 282.504 97.5291 280.308C97.6453 279.485 97.7021 278.654 97.6993 277.822C97.6993 272.963 95.7688 268.303 92.3327 264.868C88.8965 261.432 84.236 259.502 79.3765 259.502C78.9577 259.502 78.552 259.502 78.1463 259.502C77.6986 254.534 75.355 249.93 71.6019 246.644C67.8488 243.358 62.9743 241.643 57.9902 241.855C53.006 242.067 48.295 244.19 44.8347 247.783C41.3744 251.376 39.4307 256.163 39.4068 261.151C39.4068 261.622 39.4068 262.093 39.4068 262.564C36.5581 260.979 33.356 260.138 30.0961 260.117C26.8362 260.096 23.6234 260.896 20.7544 262.444C17.8854 263.991 15.4525 266.237 13.6802 268.972C11.908 271.708 10.8535 274.846 10.614 278.097C10.6205 278.175 10.6205 278.254 10.614 278.332C10.5482 279.588 10.7392 280.845 11.1755 282.025C11.6117 283.205 12.284 284.283 13.1513 285.194C14.0186 286.105 15.0626 286.83 16.2195 287.324C17.3764 287.819 18.622 288.072 19.8801 288.068L88.3678 288.16Z" fill="#46A583" fill-opacity="0.12"/>
<path d="M524.357 302.502C538.753 302.502 539.604 280.766 525.168 280.06H523.991C521.48 280.056 518.984 280.449 516.596 281.224C515.626 275.365 512.585 270.049 508.025 266.243C503.465 262.437 497.689 260.395 491.75 260.489C485.811 260.582 480.103 262.805 475.665 266.753C471.227 270.7 468.354 276.109 467.57 281.996C462.714 279.69 457.203 279.158 451.995 280.492C439.366 283.737 442.009 302.528 455.058 302.528L524.357 302.502Z" fill="#46A583" fill-opacity="0.12"/>
<path d="M350.867 195.395C365.263 195.395 366.114 173.673 351.692 172.966H350.501C347.995 172.965 345.505 173.353 343.119 174.118C342.158 168.253 339.119 162.929 334.558 159.117C329.997 155.306 324.217 153.261 318.274 153.356C312.33 153.452 306.619 155.68 302.182 159.636C297.745 163.591 294.879 169.01 294.106 174.903C289.253 172.586 283.74 172.048 278.532 173.385C265.902 176.643 268.559 195.421 281.594 195.421L350.867 195.395Z" fill="#46A583" fill-opacity="0.12"/>
<path d="M120.93 235.555C140.048 235.555 155.547 220.059 155.547 200.944C155.547 181.828 140.048 166.332 120.93 166.332C101.811 166.332 86.313 181.828 86.313 200.944C86.313 220.059 101.811 235.555 120.93 235.555Z" fill="#FFB84C"/>
<path d="M121.218 166.332C127.448 170.421 132.192 176.411 134.747 183.41C137.301 190.41 137.529 198.047 135.396 205.187C133.263 212.327 128.884 218.588 122.908 223.04C116.933 227.493 109.68 229.9 102.228 229.903H101.953C106.453 232.852 111.578 234.712 116.922 235.335C122.267 235.958 127.683 235.326 132.74 233.491C137.798 231.656 142.358 228.667 146.059 224.762C149.76 220.857 152.499 216.143 154.06 210.995C155.62 205.846 155.959 200.405 155.049 195.103C154.139 189.801 152.006 184.783 148.818 180.45C145.63 176.116 141.476 172.585 136.685 170.136C131.894 167.688 126.598 166.39 121.218 166.345V166.332Z" fill="#FF9F50"/>
</g>
<defs>
<linearGradient id="paint0_linear_882_96822" x1="310.662" y1="472.838" x2="310.662" y2="441.367" gradientUnits="userSpaceOnUse">
<stop stop-color="white"/>
<stop offset="0.12" stop-color="white" stop-opacity="0.82"/>
<stop offset="0.3" stop-color="white" stop-opacity="0.58"/>
<stop offset="0.47" stop-color="white" stop-opacity="0.37"/>
<stop offset="0.64" stop-color="white" stop-opacity="0.21"/>
<stop offset="0.78" stop-color="white" stop-opacity="0.1"/>
<stop offset="0.91" stop-color="white" stop-opacity="0.02"/>
<stop offset="1" stop-color="white" stop-opacity="0"/>
</linearGradient>
<clipPath id="clip0_882_96822">
<rect width="565.269" height="515" fill="white"/>
</clipPath>
</defs>
</svg>
